# xmcd CD database file
#
# Track frame offsets:
#	150
#	12277
#	24527
#	39240
#	56970
#	74027
#	87395
#	107162
#	122962
#	133922
#	149462
#	160912
#	181730
#	192880
#	207015
#	211752
#
# Disc length: 2892 seconds
#
# Revision: 0
# Processed by: cddbd v1.4PL0 Copyright (c) Steve Scherf et al.
# Submitted via: CDex 1.51
#
DISCID=ec0b4a10
DTITLE=Ritt Henn - It's Me
DYEAR=1900
DGENRE=Jazz
TTITLE0=It's Me
TTITLE1=Zen and The Art Of Waiting In Line
TTITLE2=New Shoes
TTITLE3=Maintenance
TTITLE4=Away-O
TTITLE5=20 Feet Away
TTITLE6=Doin' My Taxes
TTITLE7=Chicks dig Me Cuz I Bowl
TTITLE8=Not Such A Bad Thing
TTITLE9=Sunshine On My Shoulders
TTITLE10=Jeez Louise
TTITLE11=Painless Window
TTITLE12=Sleep The Sleep Of Angels
TTITLE13=Just Another Glimpse Of You
TTITLE14=The Smile
TTITLE15=Surprise Extra Track
EXTD=
EXTT0=
EXTT1=
EXTT2=
EXTT3=
EXTT4=
EXTT5=
EXTT6=
EXTT7=
EXTT8=
EXTT9=
EXTT10=
EXTT11=
EXTT12=
EXTT13=
EXTT14=
EXTT15=
PLAYORDER=
